<svg xmlns="http://www.w3.org/2000/svg" viewBox="0 0 24 24" width="24" height="24">
  <path d="M12 .296c-6.627 0-12 5.373-12 12 0 5.302 3.438 9.797 8.207 11.395.6.113.793-.261.793-.577 0-.288-.01-1.049-.015-2.064-3.338.727-4.043-1.605-4.043-1.605-.545-1.384-1.328-1.75-1.328-1.75-1.085-.741.083-.728.083-.728 1.2.085 1.835 1.263 1.835 1.263 1.065 1.824 2.8 1.297 3.49.994.107-.772.418-1.297.762-1.597-2.665-.3-5.466-1.332-5.466-5.926 0-1.31.469-2.381 1.237-3.22-.124-.303-.536-.79-.145-1.284 0 0 1.013-.325 3.311 1.235 1.293-.36 2.684-.54 4.035-.548 1.35 0 2.742.188 4.035.548 2.298-1.56 3.311-1.235 3.311-1.235.39.493-.02.981-.145 1.284.768.839 1.237 1.91 1.237 3.22 0 4.602-2.803 5.626-5.469 5.926.43.404.774.998.774 1.997 0 1.44-.015 2.598-.015 2.944 0 .318.191.695.797.577 4.77-1.598 8.207-6.093 8.207-11.395 0-6.627-5.373-12-12-12z"></path>
</svg>
